<svg xmlns="http://www.w3.org/2000/svg" viewBox="0 0 320 180" role="img" aria-label="Fit and intent scored on separate axes">
<title>Fit and intent scored on separate axes</title>
<style>
text{font-family:"IBM Plex Mono",ui-monospace,Menlo,monospace;font-size:9px;fill:#5F6B7D}
.f{animation:flow 3s linear infinite} @keyframes flow{to{stroke-dashoffset:-24}}
.p{animation:pulse 4s ease-in-out infinite} @keyframes pulse{0%,100%{opacity:.25}50%{opacity:1}}
.s{animation:sweep 6s linear infinite;transform-origin:0px 0px} @keyframes sweep{to{transform:rotate(360deg)}}
.g{animation:grow 5s ease-in-out infinite;transform-box:fill-box;transform-origin:left bottom} @keyframes grow{0%{transform:scaleX(.2)}50%,100%{transform:scaleX(1)}}
@media (prefers-reduced-motion:reduce){*{animation:none!important}}
</style>
<rect width="320" height="180" fill="#F5F7FA"/>
<g stroke="#E7EBF0" stroke-width="1"><path d="M20 0V180"/><path d="M40 0V180"/><path d="M60 0V180"/><path d="M80 0V180"/><path d="M100 0V180"/><path d="M120 0V180"/><path d="M140 0V180"/><path d="M160 0V180"/><path d="M180 0V180"/><path d="M200 0V180"/><path d="M220 0V180"/><path d="M240 0V180"/><path d="M260 0V180"/><path d="M280 0V180"/><path d="M300 0V180"/><path d="M0 20H320"/><path d="M0 40H320"/><path d="M0 60H320"/><path d="M0 80H320"/><path d="M0 100H320"/><path d="M0 120H320"/><path d="M0 140H320"/><path d="M0 160H320"/></g>

<rect x="180" y="16" width="124" height="74" fill="#E9F2F2"/>
<path d="M30 164H306M30 164V14" stroke="#5F6B7D" stroke-width="1.2"/>
<path d="M180 14V164M30 90H306" stroke="#D8DEE6" stroke-width="1.2" stroke-dasharray="3 3"/>
<circle cx="124" cy="41" r="3" fill="#3E5C76" opacity="0.55"/><circle cx="209" cy="30" r="3" fill="#2F6F73" opacity="1"/><circle cx="179" cy="71" r="3" fill="#3E5C76" opacity="0.55"/><circle cx="55" cy="91" r="3" fill="#3E5C76" opacity="0.55"/><circle cx="50" cy="81" r="3" fill="#3E5C76" opacity="0.55"/><circle cx="58" cy="33" r="3" fill="#3E5C76" opacity="0.55"/><circle cx="150" cy="136" r="3" fill="#3E5C76" opacity="0.55"/><circle cx="72" cy="51" r="3" fill="#3E5C76" opacity="0.55"/><circle cx="203" cy="153" r="3" fill="#3E5C76" opacity="0.55"/><circle cx="190" cy="76" r="3" fill="#2F6F73" opacity="1"/><circle cx="294" cy="27" r="3" fill="#2F6F73" opacity="1"/><circle cx="263" cy="61" r="3" fill="#2F6F73" opacity="1"/><circle cx="78" cy="36" r="3" fill="#3E5C76" opacity="0.55"/><circle cx="120" cy="134" r="3" fill="#3E5C76" opacity="0.55"/><circle cx="87" cy="101" r="3" fill="#3E5C76" opacity="0.55"/><circle cx="206" cy="72" r="3" fill="#2F6F73" opacity="1"/><circle cx="182" cy="29" r="3" fill="#2F6F73" opacity="1"/><circle cx="55" cy="49" r="3" fill="#3E5C76" opacity="0.55"/><circle cx="217" cy="80" r="3" fill="#2F6F73" opacity="1"/><circle cx="122" cy="102" r="3" fill="#3E5C76" opacity="0.55"/><circle cx="158" cy="62" r="3" fill="#3E5C76" opacity="0.55"/><circle cx="247" cy="118" r="3" fill="#3E5C76" opacity="0.55"/><circle cx="103" cy="100" r="3" fill="#3E5C76" opacity="0.55"/><circle cx="177" cy="143" r="3" fill="#3E5C76" opacity="0.55"/><circle cx="230" cy="60" r="3" fill="#2F6F73" opacity="1"/><circle cx="295" cy="37" r="3" fill="#2F6F73" opacity="1"/><circle cx="149" cy="126" r="3" fill="#3E5C76" opacity="0.55"/><circle cx="80" cy="88" r="3" fill="#3E5C76" opacity="0.55"/><circle cx="50" cy="114" r="3" fill="#3E5C76" opacity="0.55"/><circle cx="239" cy="100" r="3" fill="#3E5C76" opacity="0.55"/><circle cx="268" cy="64" r="3" fill="#2F6F73" opacity="1"/><circle cx="221" cy="103" r="3" fill="#3E5C76" opacity="0.55"/><circle cx="191" cy="84" r="3" fill="#2F6F73" opacity="1"/><circle cx="258" cy="152" r="3" fill="#3E5C76" opacity="0.55"/><circle cx="163" cy="113" r="3" fill="#3E5C76" opacity="0.55"/><circle cx="56" cy="118" r="3" fill="#3E5C76" opacity="0.55"/><circle cx="208" cy="159" r="3" fill="#3E5C76" opacity="0.55"/><circle cx="254" cy="60" r="3" fill="#2F6F73" opacity="1"/><circle cx="140" cy="114" r="3" fill="#3E5C76" opacity="0.55"/><circle cx="46" cy="85" r="3" fill="#3E5C76" opacity="0.55"/><circle cx="84" cy="36" r="3" fill="#3E5C76" opacity="0.55"/><circle cx="55" cy="128" r="3" fill="#3E5C76" opacity="0.55"/><circle cx="74" cy="55" r="3" fill="#3E5C76" opacity="0.55"/><circle cx="142" cy="142" r="3" fill="#3E5C76" opacity="0.55"/><circle cx="61" cy="83" r="3" fill="#3E5C76" opacity="0.55"/><circle cx="183" cy="144" r="3" fill="#3E5C76" opacity="0.55"/>
<circle cx="250" cy="44" r="8" fill="none" stroke="#8A6A1F" stroke-width="1.5" class="p"/>
<text x="266" y="176">fit →</text><text x="6" y="12">intent</text></svg>
