<svg xmlns="http://www.w3.org/2000/svg" viewBox="0 0 320 180" role="img" aria-label="Link budget waterfall from transmit power to margin">
<title>Link budget waterfall from transmit power to margin</title>
<style>
text{font-family:"IBM Plex Mono",ui-monospace,Menlo,monospace;font-size:9px;fill:#62686F}
.f{animation:flow 3s linear infinite} @keyframes flow{to{stroke-dashoffset:-24}}
.p{animation:pulse 4s ease-in-out infinite} @keyframes pulse{0%,100%{opacity:.25}50%{opacity:1}}
.s{animation:sweep 6s linear infinite;transform-origin:0px 0px} @keyframes sweep{to{transform:rotate(360deg)}}
.g{animation:grow 5s ease-in-out infinite;transform-box:fill-box;transform-origin:left bottom} @keyframes grow{0%{transform:scaleX(.2)}50%,100%{transform:scaleX(1)}}
@media (prefers-reduced-motion:reduce){*{animation:none!important}}
</style>
<rect width="320" height="180" fill="#FBFAF7"/>
<g stroke="#ECE9E2" stroke-width="1"><path d="M20 0V180"/><path d="M40 0V180"/><path d="M60 0V180"/><path d="M80 0V180"/><path d="M100 0V180"/><path d="M120 0V180"/><path d="M140 0V180"/><path d="M160 0V180"/><path d="M180 0V180"/><path d="M200 0V180"/><path d="M220 0V180"/><path d="M240 0V180"/><path d="M260 0V180"/><path d="M280 0V180"/><path d="M300 0V180"/><path d="M0 20H320"/><path d="M0 40H320"/><path d="M0 60H320"/><path d="M0 80H320"/><path d="M0 100H320"/><path d="M0 120H320"/><path d="M0 140H320"/><path d="M0 160H320"/></g>

<path d="M24 150H304" stroke="#62686F" stroke-width="1.2"/>
<rect x="32" y="60" width="44" height="90" fill="#E8EDF3" stroke="#1F3A5F" stroke-width="1.5" class="g"/><text x="36" y="164">Tx+G</text>
<rect x="88" y="40" width="44" height="20" fill="#E8EDF3" stroke="#1F3A5F" stroke-width="1.5"/><text x="92" y="164">G</text>
<rect x="144" y="40" width="44" height="80" fill="#F6E9E6" stroke="#A33A2B" stroke-width="1.5"/><text x="146" y="164">FSPL</text>
<rect x="200" y="106" width="44" height="14" fill="#E8EDF3" stroke="#1F3A5F" stroke-width="1.5"/><text x="204" y="164">Grx</text>
<path d="M190 128H310" stroke="#5E7F68" stroke-width="1.5" stroke-dasharray="4 3" class="f"/><text x="252" y="142" fill="#5E7F68">sensitivity</text>
<path d="M270 106 V128" stroke="#B8872B" stroke-width="2" class="p"/><text x="276" y="100" fill="#B8872B">margin</text></svg>
