<svg xmlns="http://www.w3.org/2000/svg" viewBox="0 0 320 180" role="img" aria-label="Research note with cited sources">
<title>Research note with cited sources</title>
<style>
text{font-family:"IBM Plex Mono",ui-monospace,Menlo,monospace;font-size:9px;fill:#5F6B7D}
.f{animation:flow 3s linear infinite} @keyframes flow{to{stroke-dashoffset:-24}}
.p{animation:pulse 4s ease-in-out infinite} @keyframes pulse{0%,100%{opacity:.25}50%{opacity:1}}
.s{animation:sweep 6s linear infinite;transform-origin:0px 0px} @keyframes sweep{to{transform:rotate(360deg)}}
.g{animation:grow 5s ease-in-out infinite;transform-box:fill-box;transform-origin:left bottom} @keyframes grow{0%{transform:scaleX(.2)}50%,100%{transform:scaleX(1)}}
@media (prefers-reduced-motion:reduce){*{animation:none!important}}
</style>
<rect width="320" height="180" fill="#F5F7FA"/>
<g stroke="#E7EBF0" stroke-width="1"><path d="M20 0V180"/><path d="M40 0V180"/><path d="M60 0V180"/><path d="M80 0V180"/><path d="M100 0V180"/><path d="M120 0V180"/><path d="M140 0V180"/><path d="M160 0V180"/><path d="M180 0V180"/><path d="M200 0V180"/><path d="M220 0V180"/><path d="M240 0V180"/><path d="M260 0V180"/><path d="M280 0V180"/><path d="M300 0V180"/><path d="M0 20H320"/><path d="M0 40H320"/><path d="M0 60H320"/><path d="M0 80H320"/><path d="M0 100H320"/><path d="M0 120H320"/><path d="M0 140H320"/><path d="M0 160H320"/></g>

<rect x="70" y="18" width="130" height="150" rx="4" fill="#fff" stroke="#D8DEE6" stroke-width="1.5"/>
<path d="M84 38H170" stroke="#0B2545" stroke-width="3"/>
<path d="M84 56H150" stroke="#C3CBD5" stroke-width="2"/><path d="M84 68H186" stroke="#C3CBD5" stroke-width="2"/><path d="M84 80H186" stroke="#C3CBD5" stroke-width="2"/><path d="M84 92H150" stroke="#C3CBD5" stroke-width="2"/><path d="M84 104H186" stroke="#C3CBD5" stroke-width="2"/><path d="M84 116H186" stroke="#C3CBD5" stroke-width="2"/><path d="M84 128H150" stroke="#C3CBD5" stroke-width="2"/><path d="M84 140H186" stroke="#C3CBD5" stroke-width="2"/>
<rect x="150" y="76" width="36" height="12" rx="2" fill="#F4EFE2" class="p"/>
<path d="M186 82 C214 82 214 60 236 60" fill="none" stroke="#8A6A1F" stroke-width="1.5" stroke-dasharray="3 3" class="f"/>
<rect x="236" y="48" width="64" height="24" rx="3" fill="#fff" stroke="#3E5C76" stroke-width="1.5"/><text x="244" y="64">source [1]</text>
<path d="M186 118 C214 118 214 124 236 124" fill="none" stroke="#3E5C76" stroke-width="1.5" stroke-dasharray="3 3" class="f"/>
<rect x="236" y="112" width="64" height="24" rx="3" fill="#fff" stroke="#3E5C76" stroke-width="1.5"/><text x="244" y="128">source [2]</text></svg>
